<svg xmlns="http://www.w3.org/2000/svg" viewBox="0 0 64 64">
  <rect width="64" height="64" rx="17" fill="#0e6f62"/>
  <path d="M42.1 17.2c-3-2.4-6.4-3.6-10.2-3.6-7.2 0-12.3 3.5-12.3 9.2 0 4.2 2.4 6.7 8.3 8.5l4.7 1.5c2.6.8 3.5 1.7 3.5 3.2 0 1.9-1.8 3.1-4.5 3.1-3.5 0-6.8-1.4-9.7-4.1l-4.2 6.4c3.8 3.3 8.5 5 14.1 5 8.1 0 13.2-3.8 13.2-10.2 0-4.8-2.7-7.5-9.1-9.4l-4.3-1.3c-2.5-.8-3.3-1.7-3.3-2.9 0-1.6 1.5-2.6 3.8-2.6 2.8 0 5.4 1 8 3.1l4-6z" fill="#fff"/>
  <circle cx="47" cy="16" r="4" fill="#e7ad56"/>
</svg>
